/* XPM */
static char * mnHttpServer_xpm[] = {
"24 24 5 1",
" 	c #FF00FF",
".	c #606040",
"+	c #000000",
"@	c #FFFFFF",
"#	c #0000FF",
"                        ",
"                        ",
"                        ",
"     .++++++++++++.     ",
"     +@@@@@@@@@@@@+     ",
"     +@@@@@@@@@@@@+     ",
"     +@..@..@@.@.@+     ",
"     +@@@@@@@@@@@@+     ",
"     +@.@.@@..@..@+     ",
"     +@@@@@@@@@@@@+     ",
"     +@...@.@@...@+     ",
"     +@@@@@@@@@@@@+     ",
"     +@...@@@@@..@+     ",
"     +@@@@@#@@#@@@+     ",
"     +@@#@@#@@#@@@+     ",
"     +@@#@@#@@@#@@+     ",
"     .++#++#+++#++.     ",
"       #   #    #       ",
"     # #  ###   # #     ",
"     ##   ###    ##     ",
"     ###   #    ###     ",
"                        ",
"                        ",
"                        "};
