<svg xmlns="http://www.w3.org/2000/svg" viewBox="0 0 10 10" width="36px" height="36px" ><defs><filter id="a" color-interpolation-filters="sRGB"><feFlood flood-color="#000" flood-opacity=".8" result="flood"/><feGaussianBlur in="SourceGraphic" result="blur" stdDeviation="1"/><feOffset in="blur" result="offset"/><feComposite in="flood" in2="offset" operator="in" result="comp1"/><feComposite in="SourceGraphic" in2="comp1" result="comp2"/></filter></defs><g filter="url(#filter3370-174-1)" transform="translate(0 -20.4) scale(.07157)"><path fill="#a00" stroke="#000" stroke-linecap="round" stroke-linejoin="round" stroke-width=".5" d="M3.2 298c-.1 6.7 6.1 11.5 10.6 11.5h11c2.9 0 2.7-4.1 0-4.1H17c-5.7 0-9.4-2.5-9.5-7.3 0-3.9 3-8 6.9-8h15c-1.4-1.5-3-4-5.8-3.9H8.9c-2.6 0-6.6-.5-6.5-.5a9.8 9.8 0 0 0 5.5 3.1 11 11 0 0 0-4.7 9.2zm6.6-.5c0 3.7 3 5.7 6 5.7h7c3.3 0 5.8.9 6 4.3 0 1.8-1.5 4.1-4 4.1H9.3c-2.2 0-4.8 1.7-6.1 5.2 3.9-1.2 6-.9 9.2-.9h12.4a8 8 0 0 0 7.6-8.5c0-6.8-6.2-8.2-9.4-8.2h-7.3c-2.2 0-2.3-3 0-3h13.8c2.4 0 2-4.2 0-4.2-5 0-10.5.2-13.8.1-3.2 0-6 2.4-5.9 5.4z" color="#000" filter="url(#a)" transform="translate(.4 -810.6) scale(3.8598)"/></g></svg>