<svg xmlns="http://www.w3.org/2000/svg" viewBox="0 0 10 10" width="36" height="36"><g transform="translate(0 -20.4) scale(.07157)"><path fill="#a00" stroke="#000" stroke-linecap="round" stroke-linejoin="round" stroke-width="1.93" d="M12.751 339.62c-.385 25.861 23.546 44.388 40.915 44.388h42.458c11.193 0 10.422-15.825 0-15.825H66.017c-22.001 0-36.283-9.65-36.668-28.177-.002-15.053 11.578-30.878 26.631-30.878h57.898c-5.404-5.79-11.58-15.44-22.387-15.053H34.753c-10.035 0-25.474-1.93-25.088-1.93a37.826 37.826 0 0021.228 11.965 42.458 42.458 0 00-18.14 35.51zm25.476-1.93c0 14.282 11.58 22.001 23.159 22.001l27.018.001c12.738.001 22.387 3.475 23.16 16.599 0 6.946-5.79 15.824-15.44 15.824H36.296c-8.491 0-18.527 6.561-23.545 20.07 15.055-4.63 23.16-3.473 35.512-3.473h47.86a30.878 30.878 0 0029.336-32.807c0-26.247-23.931-31.65-36.283-31.65H61c-8.493 0-8.879-11.58-.001-11.58h53.264c9.264 0 7.72-16.211 0-16.211-19.299 0-40.528.772-53.265.386-12.353 0-23.16 9.263-22.774 20.843z" color="#000"/></g></svg>