<svg id="a" display="block" fill="currentColor" version="1.1" viewBox="0 0 512 512" xmlns="http://www.w3.org/2000/svg"><path id="b" d="m90.674 390.57c-12.941-65.678 31.253-142.85 89.584-182.77-49.513-66.872-49.529-103.25-19.885-141.75 33.597-43.628 97.928-40.538 138.81-39.683l11.173 58.115c-36.885-2.7752-55.048-12.534-79.347 4.6368-19.173 18.047-19.231 39.817-5.0499 62.003 6.3899 9.9966 10.56 19.346 17.082 18.323 17.613-2.7623 43.284-21.731 118.74-45.31 1.5381 20.326 3.7076 44.282 1.7342 68.402-82.694 17.861-149.37 62.566-177.28 108.2-31.156 50.943-13.048 96.802 26.663 119.27 47.602 26.928 172.61-22.698 210.99-87.941-0.46062 15.727-0.0967 63.386-0.30433 70.965-26.242 65.084-125.99 107-225.87 93.046-33.064-4.6205-94.421-41.406-107.05-105.5z" stroke-linecap="round" stroke-linejoin="round" stroke-width="19.395"/></svg>
