<svg id="a" display="block" fill="currentColor" version="1.1" viewBox="0 0 512 512" xmlns="http://www.w3.org/2000/svg"><path id="b" d="m77.349 382.06c-12.941-65.678 3.946-147.25 62.277-187.17-14.088-19.028-24.519-37.18-29.819-60.998s-3.4209-65.289 26.671-95.727 108.06-22.099 108.86-7.9716l3.2451 57.234c-28.13-16.15-79.803-15.06-97.845 12.565-13.548 20.743 25.711 42.144 57.837 49.495 17.107-4.7867 47.749-21.487 124.91-38.263l-19.407 71.045c-82.694 17.861-146.29 66.922-173.76 109.08-20.719 31.808-19.351 57.211 3.6635 73.255 55.224 38.497 162.23 60.854 294.77 59.374l-96.385 67.713c-38.077 4.0426-102.31 1.6788-146.77-5.9905-31.832-5.4917-100.35-43.057-118.26-103.63z" stroke-linecap="round" stroke-linejoin="round" stroke-width="19.395"/></svg>
