<svg id="a" display="block" viewBox="0 0 512 512" xmlns="http://www.w3.org/2000/svg"><path d="m419.37 395.72q-2.895 31.129-7.6 54.656-4.344 23.166-7.24 33.663h-312.37v-15.565q24.613-5.067 38.368-10.859 14.116-6.153 14.116-11.22v-380.42q0-4.343-13.392-10.859-13.031-6.515-39.092-11.582v-15.564h291.74l11.944 9.05q-0.724 9.41-2.172 20.631t-3.62 22.442-4.705 21.355q-2.172 10.135-4.343 17.012h-16.289q-0.723-16.65-3.257-27.87-2.172-11.221-5.792-17.737-3.62-6.877-9.049-9.41-5.067-2.896-11.582-2.896h-132.48v157.45h146.59l9.411 10.135q-2.896 5.068-7.24 10.859-3.98 5.791-8.686 11.583-4.344 5.429-9.05 10.134-4.343 4.706-8.324 7.602-5.43-5.43-11.945-9.05-6.153-3.619-14.478-6.153-7.963-2.533-19.184-3.62-10.859-1.085-26.061-1.085h-51.036v179.89q0 5.43 2.533 9.773 2.534 3.981 10.497 7.239 7.963 2.896 22.442 4.705 14.478 1.448 38.367 1.448h46.693q16.65 0 28.233-1.81 11.945-1.81 20.994-7.963 9.049-6.515 16.288-18.822 7.6-12.306 15.202-33.662z" display="inline" stop-color="#000000"/><path id="d" d="m84.656 20.465v29.246l6.0684 1.1797c17.013 3.3078 29.576 7.1309 37.17 10.928l0.0352 0.01953 0.0371 0.01758c4.1693 2.0286 7.1294 3.861 8.6016 5.0547 0.50075 0.40604 0.48978 0.47378 0.57031 0.59766v377.7c-0.0736 0.0859-0.12434 0.19656-0.69531 0.65039-1.4846 1.18-4.5366 2.9632-8.8633 4.8535-8.4159 3.5402-20.829 7.0978-36.938 10.414l-5.9863 1.2324v29.178h325.58l1.5176-5.5059c2.0467-7.4186 4.4599-18.701 7.3652-34.188 3.2034-16.018 5.7643-34.479 7.7129-55.432l0.50977-5.4844-27.951-11.701-2.6562 7.4609c-4.9558 13.922-9.8827 24.731-14.518 32.236l-0.041 0.0684-0.041 0.0703c-4.4053 7.4895-9.1759 12.889-14.135 16.479-5.0261 3.3971-10.852 5.6396-17.807 6.6934l-0.0176 2e-3 -0.0176 4e-3c-7.1804 1.122-16.246 1.7188-27.074 1.7188h-46.693c-15.733 0-28.296-0.48434-37.535-1.4043-9.1939-1.1539-16.161-2.6745-20.559-4.2559-4.3736-1.8161-6.4721-3.7163-6.8106-4.1953-0.93665-1.6689-1.4356-3.4383-1.4356-5.8086v-172.39h43.537c9.9562 0 18.42 0.35992 25.314 1.0488h0.0117l0.0117 2e-3c7.0936 0.68717 12.999 1.8286 17.633 3.3027l0.0898 0.0274c5.0909 1.5496 9.3721 3.3923 12.859 5.4434l0.1602 0.0898c3.7249 2.0697 7.1364 4.6481 10.285 7.7969l4.5312 4.5332 5.1836-3.7715c3.1246-2.273 6.1909-5.0991 9.2969-8.4512 3.3076-3.3134 6.4791-6.865 9.5117-10.654 3e-3 -4e-3 7e-3 -6e-3 0.01-0.01 3.1975-3.9377 6.1549-7.8886 8.8867-11.854 3.0167-4.0277 5.5895-7.8676 7.6953-11.553l2.7344-4.7852-15.387-16.57h-142.37v-142.45h124.98c3.232 0 5.6837 0.66275 7.8594 1.9062l0.26954 0.1543 0.28125 0.13086c1.8414 0.85913 3.7137 2.5544 5.584 6.1074l0.0391 0.07422 0.041 0.07422c1.835 3.303 3.6326 8.5362 4.9844 15.52l0.0215 0.11523 0.0273 0.11133c1.5475 6.8519 2.6094 15.751 3.0781 26.545l0.3125 7.1738h28.967l1.6562-5.2422c1.5446-4.8929 3.032-10.754 4.5098-17.643 1.7069-6.8439 3.2897-14.022 4.748-21.557 1.4775-7.6333 2.7097-15.27 3.6953-22.908 0.97908-7.5872 1.7184-14.588 2.2129-21.016l0.3125-4.0801-17.215-13.045zm15 15h281.72l6.5644 4.9746c-0.45372 5.1109-0.94736 10.329-1.7109 16.246-0.94503 7.3233-2.1265 14.649-3.5449 21.977-1.4247 7.3602-2.9641 14.349-4.6172 20.963l-0.0312 0.12305-0.0254 0.12305c-0.95968 4.4781-1.891 7.6702-2.8262 11.084h-3.5312c-0.59864-8.1769-1.46-15.656-2.8633-21.902-1.5372-7.9018-3.5861-14.445-6.5488-19.795-2.9176-5.503-7.004-9.9888-12.275-12.51-4.4959-2.4816-9.6205-3.7051-14.934-3.7051h-139.98v172.45h150.82l3.168 3.4102c-1.2122 1.8448-2.2054 3.5561-3.7266 5.584l-0.0937 0.12305-0.0879 0.1289c-2.5329 3.6854-5.3077 7.3866-8.3262 11.102l-0.0352 0.043c-2.7309 3.413-5.5628 6.5829-8.4961 9.5156l-0.10743 0.10742-0.10156 0.11133c-1.0645 1.1535-1.9187 1.7292-2.9121 2.6699-2.5799-2.05-5.2638-3.9405-8.127-5.5371-4.6855-2.746-10.012-4.9902-15.969-6.8066-5.9718-1.8953-12.837-3.1653-20.684-3.9258h-6e-3c-7.5792-0.75629-16.48-1.1211-26.783-1.1211h-58.537v187.39c0 4.7862 1.1807 9.4804 3.5547 13.551l0.0742 0.12695 0.0781 0.12305c3.1026 4.8743 7.9429 7.6805 13.984 10.152l0.13672 0.0566 0.13867 0.0508c6.2094 2.2582 14.103 3.8516 24.076 5.0976l0.0918 0.0117 0.0918 0.01c10.058 1.006 23.036 1.4844 39.113 1.4844h46.693c11.357 0 21.099-0.60668 29.355-1.8945 6.4e-4 -1e-4 1e-3 1e-4 2e-3 0 8.9299-1.3534 17.068-4.4036 24.086-9.1758l0.084-0.0566 0.082-0.0586c7.0678-5.0886 13.121-12.199 18.34-21.061 4.4514-7.2246 8.6991-16.738 12.91-27.645l3.3301 1.3945c-1.8325 18.178-4.0823 34.534-6.8633 48.439l-0.01 0.0449-8e-3 0.0449c-2.2793 12.155-4.1604 20.853-5.7871 27.545h-298.95v-2.1524c13.648-3.0372 25.179-6.2387 33.777-9.8594l0.043-0.0176 0.043-0.0195c5.051-2.2017 9.0441-4.3304 12.258-6.8848 3.2137-2.5544 6.3613-6.0396 6.3613-11.211v-380.42c0-5.3021-3.1312-8.2869-6.123-10.713-2.9827-2.4185-6.7094-4.5619-11.447-6.8691-8.5914-4.2903-20.24-7.7945-34.912-10.924z"/></svg>
