<svg id="a" display="block" version="1.1" viewBox="0 0 512 512" xmlns="http://www.w3.org/2000/svg"><path id="b" d="m419.37 395.72q-2.895 31.129-7.6 54.656-4.344 23.166-7.24 33.663h-312.37v-15.565q24.613-5.067 38.368-10.859 14.116-6.153 14.116-11.22v-380.42q0-4.343-13.392-10.859-13.031-6.515-39.092-11.582v-15.564h291.74l11.944 9.05q-0.724 9.41-2.172 20.631t-3.62 22.442-4.705 21.355q-2.172 10.135-4.343 17.012h-16.289q-0.723-16.65-3.257-27.87-2.172-11.221-5.792-17.737-3.62-6.877-9.049-9.41-5.067-2.896-11.582-2.896h-132.48v157.45h146.59l9.411 10.135q-2.896 5.068-7.24 10.859-3.98 5.791-8.686 11.583-4.344 5.429-9.05 10.134-4.343 4.706-8.324 7.602-5.43-5.43-11.945-9.05-6.153-3.619-14.478-6.153-7.963-2.533-19.184-3.62-10.859-1.085-26.061-1.085h-51.036v179.89q0 5.43 2.533 9.773 2.534 3.981 10.497 7.239 7.963 2.896 22.442 4.705 14.478 1.448 38.367 1.448h46.693q16.65 0 28.233-1.81 11.945-1.81 20.994-7.963 9.049-6.515 16.288-18.822 7.6-12.306 15.202-33.662z" display="inline" stop-color="#000000"/><path id="d" d="m84.657 20.464v29.246l6.0684 1.1797c17.013 3.3078 29.576 7.1306 37.17 10.928l0.0352 0.01953 0.0371 0.01758c4.1693 2.0286 7.1294 3.861 8.6016 5.0547 0.50075 0.40604 0.48978 0.47378 0.57031 0.59766v377.7c-0.0736 0.0859-0.12434 0.19657-0.69531 0.6504-1.4846 1.18-4.5366 2.9632-8.8633 4.8535-8.4159 3.5402-20.828 7.0979-36.938 10.414l-5.9863 1.2324v29.178h325.58l1.5176-5.5059c2.0467-7.4186 4.4599-18.702 7.3652-34.189 3.2034-16.018 5.7643-34.479 7.7129-55.432l0.50977-5.4844-27.951-11.701-2.6562 7.4609c-4.9558 13.922-9.8823 24.731-14.518 32.236l-0.041 0.0684-0.041 0.0703c-4.4053 7.4895-9.1776 12.889-14.137 16.479-5.0261 3.3971-10.852 5.6396-17.807 6.6934l-0.0176 2e-3 -0.0176 4e-3c-7.1804 1.122-16.246 1.7188-27.074 1.7188h-46.691c-15.733 0-28.296-0.48434-37.535-1.4043-9.1939-1.1539-16.163-2.6745-20.561-4.2558-4.3736-1.8161-6.4721-3.7163-6.8105-4.1953-0.93665-1.6689-1.4356-3.4383-1.4356-5.8086v-172.39h43.537c9.9562 0 18.42 0.35995 25.314 1.0488h0.0117l0.0117 2e-3c7.0936 0.68717 12.999 1.8286 17.633 3.3027l0.0898 0.0274c5.0909 1.5496 9.3725 3.3923 12.859 5.4434l0.16016 0.0898c3.7249 2.0697 7.1366 4.6481 10.285 7.7969l4.5312 4.5332 5.1836-3.7715c3.1246-2.273 6.1909-5.0991 9.2969-8.4512 3.3076-3.3134 6.4791-6.8653 9.5117-10.654v-2e-3h2e-3l8e-3 -8e-3c3.1975-3.9377 6.1549-7.8881 8.8867-11.854 3.0167-4.0277 5.5895-7.8693 7.6953-11.555l2.7344-4.7852-15.387-16.568h-142.37v-142.45h124.98c3.232 0 5.6837 0.6628 7.8594 1.9062l0.26953 0.1543 0.28125 0.13086c1.8414 0.85913 3.7137 2.5544 5.584 6.1074l0.0391 0.07422 0.041 0.07422c1.835 3.303 3.6326 8.5357 4.9844 15.52l0.0215 0.11523 0.0273 0.11133c1.5475 6.8519 2.6094 15.751 3.0781 26.545l0.3125 7.1738h28.967l1.6562-5.2422c1.5446-4.8929 3.032-10.754 4.5098-17.643 1.7069-6.8439 3.2897-14.022 4.748-21.557 1.4775-7.6333 2.7097-15.27 3.6953-22.908 0.97908-7.5872 1.7184-14.588 2.2129-21.016l0.3125-4.0801-17.215-13.045z" fill="#1a1a1a"/></svg>
